PathFileType	4	(X/Y/Z)	 s11c0203.trc
DataRate	CameraRate	NumFrames	NumMarkers	Units	OrigDataRate	OrigDataStartFrame	OrigNumFrames
200	200	7	48	mm	200	1501	2000
Frame#	Time	racr			lacr			c7			jug			rlel			rdr			llel			ldr			s2			lic			ric			lasi			rasi			rpsi			lpsi			rgt			lgt			rth1			rth2			rth3			rth4			rlfc			rmfc			rsh1			rsh2			rsh3			rsh4			rlmal			rcal			rtoe			rmt5			lth1			lth2			lth4			lth3			llfc			lmfc			llmal			lcal			lmt5			lsh1			lsh2			lsh3			lsh4			ltoe			SBIKE			LBIKE			RBIKE			
		X1	Y1	Z1	X2	Y2	Z2	X3	Y3	Z3	X4	Y4	Z4	X5	Y5	Z5	X6	Y6	Z6	X7	Y7	Z7	X8	Y8	Z8	X9	Y9	Z9	X10	Y10	Z10	X11	Y11	Z11	X12	Y12	Z12	X13	Y13	Z13	X14	Y14	Z14	X15	Y15	Z15	X16	Y16	Z16	X17	Y17	Z17	X18	Y18	Z18	X19	Y19	Z19	X20	Y20	Z20	X21	Y21	Z21	X22	Y22	Z22	X23	Y23	Z23	X24	Y24	Z24	X25	Y25	Z25	X26	Y26	Z26	X27	Y27	Z27	X28	Y28	Z28	X29	Y29	Z29	X30	Y30	Z30	X31	Y31	Z31	X32	Y32	Z32	X33	Y33	Z33	X34	Y34	Z34	X35	Y35	Z35	X36	Y36	Z36	X37	Y37	Z37	X38	Y38	Z38	X39	Y39	Z39	X40	Y40	Z40	X41	Y41	Z41	X42	Y42	Z42	X43	Y43	Z43	X44	Y44	Z44	X45	Y45	Z45	X46	Y46	Z46	X47	Y47	Z47	X48	Y48	Z48	
1501	7.5050	539.385446	1345.497701	-115.905656	490.188612	1362.841135	-423.807436	451.203820	1466.157162	-258.124673	475.296162	1286.285875	-272.148189	569.861722	1133.529672	69.965024	763.856907	968.739053	-31.782830	507.882957	1085.493515	-548.039717	778.033619	951.772230	-427.355393	-93.753909	1202.921123	-220.785302	95.787896	1259.682753	-435.557453	134.192905	1201.483506	-24.717479	135.672248	1181.577202	-402.522299	166.354904	1141.426266	-60.135498	-55.025993	1275.763400	-156.305685	-58.207199	1284.510564	-246.279908	58.391278	1042.931434	-22.495028	38.907227	1137.272818	-444.242033	146.894777	931.774301	-17.075632	226.811197	879.750017	-27.239673	265.170222	803.685590	-47.324881	254.049781	905.274799	-32.798206	331.005461	720.518127	-64.337703	337.323026	711.607515	-191.990153	237.493538	594.392094	-59.346234	203.492666	515.583654	-81.286514	135.471027	461.452896	-85.757675	226.496242	503.902691	-111.156620	45.497190	360.646578	-102.290070	-17.028625	370.604096	-152.712203	222.237370	212.832463	-136.262684	145.037127	220.562847	-70.338935	180.444350	1073.466839	-456.164145	264.739041	1059.133071	-449.157022	280.038898	1089.904382	-434.756184	333.938068	1001.872053	-452.073107	458.794332	923.647175	-424.600200	466.812873	907.613260	-294.182828	280.378335	516.557602	-429.182152	218.099918	472.822581	-395.983318	424.755885	417.214992	-441.079502	409.669360	806.981571	-450.554346	399.008801	722.665065	-440.874991	347.742516	650.555558	-440.631832	428.081233	713.144755	-417.354254	512.484923	443.297935	-363.662844	-205.135869	950.631671	-259.789917	1.115632	82.861006	-460.719026	-15.383411	81.088770	-62.246213	
1502	7.5100	538.728354	1344.281704	-114.988569	488.617846	1365.081402	-423.505516	450.551334	1465.821859	-257.024641	474.791184	1286.096071	-271.752284	568.198180	1132.223266	70.869559	762.696831	968.890851	-30.736082	507.115639	1087.243446	-547.603611	776.583442	950.684436	-427.581904	-93.797379	1201.549463	-219.327757	94.490607	1257.911120	-434.328800	133.591320	1200.594565	-23.742887	134.822053	1179.022278	-402.511936	165.826386	1140.234885	-59.082969	-55.347557	1274.360101	-154.842745	-58.480588	1283.201487	-244.747829	59.940889	1041.974482	-22.185734	38.023785	1134.935290	-443.129713	149.766323	932.899810	-17.113858	231.593057	881.942280	-27.961034	271.185607	806.769505	-47.659970	258.321382	908.097427	-33.785839	337.877906	724.088543	-65.021199	343.226477	715.062638	-192.281971	241.423750	599.975088	-59.768451	205.781031	521.840997	-81.309613	136.543590	469.395466	-85.844436	228.525636	509.552923	-111.263602	44.463587	371.020545	-102.216459	-17.614649	382.910372	-152.742741	217.438398	218.794400	-136.655437	140.592115	228.534219	-70.549020	178.545157	1066.941292	-455.574725	262.492802	1050.460278	-449.179057	278.717696	1081.033553	-435.391117	330.092323	991.369479	-451.999033	453.439093	910.387224	-424.564066	462.604379	895.366143	-293.693264	280.090032	500.289322	-429.733596	218.853090	454.206890	-396.441413	428.112310	407.620102	-441.553668	404.918552	792.400920	-450.352118	395.566657	707.663863	-440.920171	345.397954	634.970321	-440.859074	424.759954	698.584406	-417.380624	514.474173	438.328121	-364.403250	-205.134810	950.562236	-259.640829	1.101329	82.820516	-460.727621	-15.404917	81.066641	-62.235482	
1503	7.5150	538.151398	1343.606563	-113.818908	487.517970	1367.150373	-422.849244	449.917292	1465.761290	-255.813242	474.465752	1286.174025	-271.156171	566.298441	1131.082543	71.570918	761.631047	969.048990	-29.735941	506.159175	1089.089748	-546.959446	775.098853	951.111503	-427.965895	-93.819689	1199.957139	-217.969130	93.513180	1255.907838	-433.188951	132.859083	1199.749471	-23.098291	134.168222	1176.404308	-402.694324	165.307126	1139.174411	-58.397229	-55.642440	1272.793681	-153.547944	-58.740042	1281.643924	-243.389709	61.623975	1041.047567	-21.727554	37.580829	1132.331198	-442.263684	153.696782	933.583794	-17.342661	236.307190	884.444803	-28.790921	277.447397	809.843939	-47.811058	262.433433	910.959843	-34.828466	344.780192	727.832630	-64.861175	348.961807	718.416967	-192.575243	245.399427	605.876680	-60.154974	208.278535	528.513522	-81.394074	137.981250	477.289272	-85.927282	230.849172	515.383448	-111.244342	43.905025	381.632179	-102.071122	-17.704821	395.655975	-152.465810	213.042476	225.212533	-136.924878	136.602386	236.920093	-70.707280	176.764966	1060.130945	-455.042777	260.188219	1041.376414	-449.256653	277.508099	1071.732834	-436.127693	326.049956	980.352349	-451.641827	447.437000	896.306119	-424.539773	457.044764	881.742940	-293.440520	279.842340	483.527675	-430.070403	219.801524	435.448853	-396.621191	431.001635	397.909557	-441.849518	399.886759	777.308698	-450.275472	391.898182	692.365485	-440.869718	342.896979	618.914874	-441.250928	421.096948	683.920073	-417.514389	515.917664	432.579190	-364.775693	-205.119929	950.517725	-259.553739	1.092204	82.714037	-460.743053	-15.399240	81.032441	-62.226766	
1504	7.5200	537.620145	1343.325781	-112.295608	486.788683	1369.108128	-421.881882	449.276652	1465.862952	-254.467451	474.302971	1286.405405	-270.300444	564.233682	1129.924616	72.069350	760.471046	968.972893	-28.985019	505.007094	1090.890077	-546.363574	773.682506	951.841123	-428.537134	-93.811183	1198.091750	-216.917288	92.689752	1253.687200	-432.148848	132.195149	1198.678356	-22.674042	133.648204	1173.601285	-402.922212	164.771572	1138.186964	-57.918088	-55.942809	1270.932721	-152.515225	-59.018305	1279.749276	-242.264247	63.469213	1040.090668	-21.142691	37.511838	1129.251615	-441.471213	158.464129	934.003825	-17.732406	240.952461	887.153177	-29.011439	283.462847	813.074155	-47.856817	266.411106	913.940133	-35.814314	351.532624	731.829014	-64.985582	354.461029	721.998697	-192.921893	249.572901	612.113346	-60.457110	211.089842	535.225287	-81.381729	140.011861	485.285514	-85.907586	233.592247	521.677466	-111.074738	43.936807	392.312727	-101.864414	-17.068432	408.361110	-152.270767	209.002713	231.939349	-137.133803	133.115813	245.519043	-70.846302	174.890080	1053.047299	-454.602362	257.869500	1031.925229	-449.312074	276.164126	1061.971015	-437.046578	321.830049	968.913853	-451.191982	441.045750	881.430653	-424.003082	451.369495	867.721960	-294.533383	279.612041	466.706650	-430.016584	221.079693	417.098391	-396.058458	433.361470	388.033182	-441.810589	394.611210	761.888092	-450.491937	388.098236	677.038164	-440.735257	340.296540	602.817869	-441.309782	417.362318	669.053212	-417.189138	516.956074	425.984859	-364.559644	-205.132315	950.460602	-259.509541	1.113751	82.661451	-460.769623	-15.417243	80.990465	-62.220463	
1505	7.5250	537.114416	1343.272050	-110.354360	486.371177	1370.904848	-420.720405	448.633649	1466.088556	-252.819310	474.262913	1286.817110	-269.209466	562.137610	1128.787643	72.363787	759.359417	968.829934	-28.390142	503.663496	1092.621134	-545.692727	772.173980	952.650252	-429.298524	-93.696229	1195.922716	-216.096607	92.142740	1251.416761	-431.317176	131.559021	1197.623375	-22.600343	133.051402	1170.717540	-403.016180	164.369631	1137.160368	-57.788491	-56.248737	1268.736420	-151.613867	-59.272446	1277.651010	-241.268939	65.379628	1039.128328	-20.567483	37.791145	1125.701189	-440.601001	163.846336	934.337474	-18.253454	245.479106	889.873176	-29.357086	289.486983	816.492307	-47.690522	270.294837	917.005880	-36.652882	358.326076	736.195445	-65.195463	359.920180	725.687605	-193.234538	254.004216	618.888479	-60.667509	214.427626	542.399031	-81.291808	142.545786	493.578610	-85.773398	236.830642	528.463478	-110.832967	44.599223	403.389052	-101.593860	-15.831172	421.127831	-152.123652	205.674968	238.910593	-137.313797	130.187379	254.481559	-70.851309	173.214442	1045.806317	-454.428453	255.477357	1022.178860	-449.463470	274.835514	1051.853210	-437.992621	317.490753	957.233426	-450.623175	434.321291	866.496129	-423.726694	445.380773	853.487449	-296.191776	279.486066	449.972852	-429.422916	222.063942	399.229338	-395.441398	435.123210	377.844433	-441.724290	389.257084	746.225297	-450.546089	384.110609	661.426556	-440.092051	337.715005	586.359495	-440.693825	413.505485	653.983125	-416.336070	517.585943	418.606321	-364.254638	-205.130378	950.412961	-259.497737	1.111832	82.639693	-460.754016	-15.418869	80.950239	-62.222336	
1506	7.5300	536.460312	1343.436970	-107.968036	486.155563	1372.796075	-419.654157	448.050268	1466.574645	-250.812077	474.335089	1287.428076	-267.918585	560.006771	1127.608323	72.487081	758.288857	968.581836	-28.084078	502.244984	1094.271846	-545.128638	770.594981	953.235136	-430.191999	-93.708034	1193.745108	-215.422964	91.822371	1249.023163	-430.637855	131.113250	1196.324433	-22.823688	132.885520	1167.838562	-403.399811	164.187857	1136.231167	-57.976387	-56.460250	1266.504699	-150.959177	-59.528057	1275.365761	-240.501296	67.285773	1038.169368	-20.027442	38.269799	1121.840242	-440.387024	168.546757	935.091776	-18.623095	250.003434	892.721305	-29.632048	295.447041	820.105504	-47.322700	274.108023	920.378791	-37.406894	365.457604	741.035280	-65.266912	365.602122	729.991837	-193.106935	258.627571	626.076505	-60.832793	218.239644	550.151706	-81.251815	145.900033	502.037486	-85.708202	240.684413	535.701878	-110.658796	45.894369	414.612556	-101.363139	-13.775561	434.109712	-151.913825	202.920160	246.109143	-137.422151	127.895703	263.569499	-70.915306	171.666891	1038.347720	-454.307617	253.162322	1012.281465	-449.584839	273.574319	1041.574272	-439.006194	313.134901	945.405420	-449.861960	427.074483	851.562226	-423.577857	438.880799	839.223649	-297.635618	279.261747	433.834607	-428.626773	222.832802	381.690427	-394.304154	436.342725	367.359665	-441.590355	383.697644	730.525579	-450.344900	379.953206	645.628842	-439.188579	334.906847	569.938368	-439.918131	409.426126	638.771410	-415.492048	517.696361	410.532700	-364.300094	-205.091709	950.388277	-259.446968	1.113458	82.565697	-460.766861	-15.422079	80.938915	-62.210444	
1507	7.5350	535.730891	1343.881074	-105.142547	486.087126	1374.737221	-418.576887	447.517733	1467.137962	-248.483272	474.584269	1288.146017	-266.517466	557.870674	1126.434809	72.411773	757.196535	968.280314	-28.297768	500.661469	1095.807614	-544.615877	769.025102	953.824809	-431.212112	-93.651909	1191.431606	-215.032603	91.685688	1246.443480	-430.007809	130.808824	1195.047364	-23.385699	133.153367	1165.007600	-403.936252	164.322661	1135.222275	-58.475480	-56.595464	1264.138639	-150.594737	-59.768922	1272.797255	-239.980964	69.181701	1037.272954	-19.565291	38.945769	1117.749789	-440.372132	172.689378	936.026618	-18.811279	254.453325	895.883186	-29.789105	301.666481	824.205619	-47.019943	277.900948	924.067736	-37.942724	373.086096	746.947171	-65.128688	371.774975	735.144994	-192.792963	263.759629	633.650504	-60.886430	222.568933	558.246140	-81.255061	149.764694	510.882887	-85.578078	245.436840	543.399909	-110.306685	47.927745	426.015299	-101.220001	-10.749774	447.174617	-151.780011	200.670248	253.441373	-137.601382	126.220859	272.779166	-70.976949	170.249119	1030.716239	-454.221981	250.948918	1002.335294	-449.753672	272.289524	1031.315578	-440.160656	308.853967	933.625638	-449.053988	419.780731	836.624521	-423.302398	431.671774	825.114807	-298.084831	278.833948	418.291964	-427.615941	223.238832	364.771822	-393.194266	436.910655	356.667411	-441.534865	377.941489	714.702324	-449.711760	375.645777	630.074744	-438.281166	331.867998	553.429547	-438.881879	405.181400	623.748990	-414.475982	517.346203	402.119870	-364.622011	-205.039190	950.375283	-259.382200	1.086861	82.594229	-460.728711	-15.421365	80.921575	-62.212530	
